<svg width="19" height="12" viewBox="0 0 19 12" fill="none" xmlns="http://www.w3.org/2000/svg">
<path d="M6.70833 11.8334L7.54167 11C7.70833 10.7917 7.70833 10.5 7.5 10.2917L4.16667 7.08337L18.5 7.08337C18.7917 7.08337 19 6.83337 19 6.58337L19 5.41671C19 5.12504 18.7917 4.91671 18.5 4.91671L4.16667 4.91671L7.5 1.66671C7.70833 1.45837 7.70833 1.16671 7.54167 0.958373L6.70833 0.125039C6.5 -0.0416271 6.20833 -0.0416271 6 0.125039L0.500001 5.62504C0.333333 5.83337 0.333333 6.12504 0.5 6.33337L6 11.8334C6.20833 12 6.5 12 6.70833 11.8334Z" fill="#141414"/>
</svg>
