<svg width="12" height="12" viewBox="0 0 12 12" fill="none" xmlns="http://www.w3.org/2000/svg">
<path d="M10.8317 3.96564C10.5687 3.33813 10.1862 2.76776 9.70548 2.28634C9.22616 1.80408 8.65679 1.42065 8.0297 1.15782C7.38729 0.887274 6.69706 0.748591 6.00001 0.750011H5.97657C5.26759 0.753526 4.58204 0.894151 3.93634 1.17071C3.31463 1.43623 2.7506 1.82034 2.27579 2.30157C1.7997 2.78192 1.42158 3.35029 1.16251 3.97501C0.893583 4.62465 0.757316 5.32153 0.761729 6.02462C0.765245 6.8379 0.959776 7.64532 1.32306 8.3672L0.666696 11.1814C0.666696 11.479 0.532693 11.3333 0.829177 11.3333L3.63985 10.6875C4.3651 11.0535 5.16541 11.246 5.97775 11.25H6.00236C6.70314 11.25 7.38165 11.1141 8.0215 10.8481C8.64542 10.5884 9.21266 10.2094 9.69142 9.73243C10.1742 9.25314 10.5539 8.69298 10.8199 8.06837C11.0953 7.4215 11.2359 6.7336 11.2395 6.02345C11.2418 5.30978 11.1035 4.6172 10.8317 3.96564ZM3.66095 6.56251C3.35157 6.56251 3.09962 6.31056 3.09962 6.00001C3.09962 5.68946 3.35157 5.43751 3.66095 5.43751C3.97032 5.43751 4.22228 5.68946 4.22228 6.00001C4.22228 6.31056 3.9715 6.56251 3.66095 6.56251ZM6.00001 6.56251C5.69064 6.56251 5.43868 6.31056 5.43868 6.00001C5.43868 5.68946 5.69064 5.43751 6.00001 5.43751C6.30939 5.43751 6.56134 5.68946 6.56134 6.00001C6.56134 6.31056 6.30939 6.56251 6.00001 6.56251ZM8.33907 6.56251C8.0297 6.56251 7.77775 6.31056 7.77775 6.00001C7.77775 5.68946 8.0297 5.43751 8.33907 5.43751C8.64845 5.43751 8.9004 5.68946 8.9004 6.00001C8.9004 6.31056 8.64845 6.56251 8.33907 6.56251Z" fill="#BFBFBF"/>
</svg>
