<svg width="12" height="10" viewBox="0 0 12 10" fill="none" xmlns="http://www.w3.org/2000/svg">
<path d="M10.8164 2.32332C10.6593 1.95962 10.4328 1.63003 10.1496 1.35301C9.86617 1.07517 9.53199 0.854368 9.16523 0.702621C8.78493 0.544644 8.37704 0.463782 7.96523 0.46473C7.3875 0.46473 6.82383 0.622933 6.33398 0.921761C6.2168 0.993246 6.10547 1.07176 6 1.15731C5.89453 1.07176 5.7832 0.993246 5.66602 0.921761C5.17617 0.622933 4.6125 0.46473 4.03477 0.46473C3.61875 0.46473 3.21562 0.544417 2.83477 0.702621C2.4668 0.854964 2.13516 1.0741 1.85039 1.35301C1.56679 1.62972 1.34025 1.95938 1.18359 2.32332C1.0207 2.70184 0.9375 3.10379 0.9375 3.51746C0.9375 3.9077 1.01719 4.31434 1.17539 4.72801C1.30781 5.07371 1.49766 5.43231 1.74023 5.79442C2.12461 6.36746 2.65312 6.96512 3.30937 7.57098C4.39687 8.57528 5.47383 9.26903 5.51953 9.29715L5.79727 9.47528C5.92031 9.55379 6.07852 9.55379 6.20156 9.47528L6.4793 9.29715C6.525 9.26786 7.60078 8.57528 8.68945 7.57098C9.3457 6.96512 9.87422 6.36746 10.2586 5.79442C10.5012 5.43231 10.6922 5.07371 10.8234 4.72801C10.9816 4.31434 11.0613 3.9077 11.0613 3.51746C11.0625 3.10379 10.9793 2.70184 10.8164 2.32332Z" fill="#BFBFBF"/>
</svg>
