<svg width="16" height="16" viewBox="0 0 16 16" fill="none" xmlns="http://www.w3.org/2000/svg">
<path d="M15.3712 10.0328L14.2016 9.03279C14.257 8.69351 14.2855 8.34708 14.2855 8.00065C14.2855 7.65422 14.257 7.30779 14.2016 6.96851L15.3712 5.96851C15.4595 5.89298 15.5226 5.79239 15.5523 5.68011C15.5819 5.56783 15.5767 5.44918 15.5373 5.33993L15.5212 5.29351C15.1992 4.39355 14.7171 3.55928 14.098 2.83101L14.0659 2.79351C13.9908 2.70521 13.8907 2.64173 13.7788 2.61145C13.6669 2.58116 13.5485 2.58549 13.4391 2.62386L11.9873 3.13993C11.4516 2.70065 10.8534 2.35422 10.207 2.11136L9.92659 0.593506C9.90544 0.479296 9.85004 0.374225 9.76775 0.292252C9.68546 0.210279 9.58017 0.155286 9.46588 0.134577L9.41767 0.125649C8.48731 -0.0422084 7.50874 -0.0422084 6.57838 0.125649L6.53017 0.134577C6.41587 0.155286 6.31059 0.210279 6.2283 0.292252C6.146 0.374225 6.0906 0.479296 6.06945 0.593506L5.78731 2.11851C5.14604 2.36141 4.54886 2.70766 4.01945 3.14351L2.55695 2.62386C2.4476 2.58519 2.32908 2.5807 2.21712 2.61101C2.10516 2.64131 2.00508 2.70496 1.93017 2.79351L1.89802 2.83101C1.27971 3.5598 0.797622 4.39393 0.474808 5.29351L0.458737 5.33993C0.37838 5.56315 0.444451 5.81315 0.624808 5.96851L1.80874 6.97922C1.75338 7.31493 1.72659 7.65779 1.72659 7.99886C1.72659 8.34172 1.75338 8.68458 1.80874 9.01851L0.624808 10.0292C0.536586 10.1047 0.473445 10.2053 0.44378 10.3176C0.414115 10.4299 0.419331 10.5485 0.458737 10.6578L0.474808 10.7042C0.798023 11.6042 1.27659 12.4346 1.89802 13.1667L1.93017 13.2042C2.00526 13.2925 2.10535 13.356 2.21724 13.3863C2.32913 13.4166 2.44757 13.4122 2.55695 13.3739L4.01945 12.8542C4.55159 13.2917 5.14624 13.6381 5.78731 13.8792L6.06945 15.4042C6.0906 15.5184 6.146 15.6235 6.2283 15.7055C6.31059 15.7874 6.41587 15.8424 6.53017 15.8631L6.57838 15.8721C7.51728 16.0408 8.47876 16.0408 9.41767 15.8721L9.46588 15.8631C9.58017 15.8424 9.68546 15.7874 9.76775 15.7055C9.85004 15.6235 9.90544 15.5184 9.92659 15.4042L10.207 13.8864C10.8531 13.6441 11.4547 13.2966 11.9873 12.8578L13.4391 13.3739C13.5484 13.4125 13.667 13.417 13.7789 13.3867C13.8909 13.3564 13.991 13.2928 14.0659 13.2042L14.098 13.1667C14.7194 12.4328 15.198 11.6042 15.5212 10.7042L15.5373 10.6578C15.6177 10.4381 15.5516 10.1881 15.3712 10.0328ZM12.9337 7.17922C12.9784 7.44886 13.0016 7.72565 13.0016 8.00243C13.0016 8.27922 12.9784 8.55601 12.9337 8.82565L12.8159 9.54172L14.1498 10.6828C13.9476 11.1487 13.6923 11.5897 13.3891 11.9971L11.732 11.4096L11.1712 11.8703C10.7444 12.2203 10.2695 12.4953 9.75516 12.6882L9.07481 12.9435L8.75516 14.6756C8.25083 14.7328 7.74165 14.7328 7.23731 14.6756L6.91767 12.9399L6.24267 12.681C5.73374 12.4881 5.26052 12.2131 4.83731 11.8649L4.27659 11.4024L2.60874 11.9953C2.30517 11.5864 2.05159 11.1453 1.84802 10.681L3.19624 9.52922L3.08017 8.81493C3.03731 8.54886 3.01409 8.27386 3.01409 8.00243C3.01409 7.72922 3.03552 7.45601 3.08017 7.18993L3.19624 6.47565L1.84802 5.32386C2.04981 4.85779 2.30517 4.41851 2.60874 4.00958L4.27659 4.60243L4.83731 4.13993C5.26052 3.79172 5.73374 3.51672 6.24267 3.32386L6.91945 3.06851L7.23909 1.33279C7.74088 1.27565 8.25338 1.27565 8.75695 1.33279L9.07659 3.06493L9.75695 3.32029C10.2695 3.51315 10.7462 3.78815 11.173 4.13815L11.7337 4.59886L13.3909 4.01136C13.6945 4.42029 13.948 4.86136 14.1516 5.32565L12.8177 6.46672L12.9337 7.17922ZM7.99981 4.68101C6.26409 4.68101 4.85695 6.08815 4.85695 7.82386C4.85695 9.55958 6.26409 10.9667 7.99981 10.9667C9.73552 10.9667 11.1427 9.55958 11.1427 7.82386C11.1427 6.08815 9.73552 4.68101 7.99981 4.68101ZM9.41409 9.23815C9.2286 9.42418 9.00815 9.5717 8.76543 9.67222C8.52271 9.77274 8.26252 9.82427 7.99981 9.82386C7.46588 9.82386 6.96409 9.61494 6.58552 9.23815C6.39949 9.05265 6.25198 8.8322 6.15146 8.58949C6.05094 8.34677 5.9994 8.08657 5.99981 7.82386C5.99981 7.28993 6.20874 6.78815 6.58552 6.40958C6.96409 6.03101 7.46588 5.82386 7.99981 5.82386C8.53374 5.82386 9.03552 6.03101 9.41409 6.40958C9.60012 6.59507 9.74764 6.81552 9.84816 7.05824C9.94868 7.30096 10.0002 7.56115 9.99981 7.82386C9.99981 8.35779 9.79088 8.85958 9.41409 9.23815Z" fill="#8C8C8C"/>
</svg>
