<svg width="14" height="15" viewBox="0 0 14 15" fill="none" xmlns="http://www.w3.org/2000/svg">
<path d="M13.8034 7.04597L0.733052 0.492849C0.679927 0.466286 0.61899 0.460036 0.561177 0.474099C0.497014 0.489961 0.44175 0.530601 0.407487 0.587122C0.373223 0.643642 0.362751 0.711437 0.378365 0.775661L1.72524 6.27879C1.74555 6.3616 1.80649 6.42879 1.88774 6.45535L4.19555 7.24754L1.8893 8.03972C1.80805 8.06785 1.74712 8.13347 1.72836 8.21629L0.378365 13.7272C0.364302 13.785 0.370552 13.846 0.397115 13.8975C0.458052 14.021 0.608052 14.071 0.733052 14.01L13.8034 7.49441C13.8518 7.47097 13.8909 7.43035 13.9159 7.38347C13.9768 7.25847 13.9268 7.10847 13.8034 7.04597ZM1.91899 12.1616L2.70493 8.9491L7.31743 7.36629C7.35336 7.35379 7.38305 7.32566 7.39555 7.28816C7.41743 7.22254 7.38305 7.15222 7.31743 7.12879L2.70493 5.54754L1.92211 2.34754L11.7346 7.26785L1.91899 12.1616Z" fill="white"/>
</svg>
