<svg width="20" height="24" viewBox="0 0 20 24" fill="none" xmlns="http://www.w3.org/2000/svg">
<path d="M11.101 11.9223L9.01707 14.5795L7.91618 13.1759C7.89613 13.1503 7.87052 13.1296 7.84128 13.1153C7.81205 13.1011 7.77995 13.0937 7.74743 13.0937C7.7149 13.0937 7.68281 13.1011 7.65357 13.1153C7.62433 13.1296 7.59872 13.1503 7.57868 13.1759L4.90546 16.583C4.88073 16.6146 4.86539 16.6525 4.86118 16.6924C4.85698 16.7323 4.86408 16.7726 4.88168 16.8086C4.89929 16.8447 4.92668 16.875 4.96072 16.8962C4.99477 16.9175 5.0341 16.9287 5.07421 16.9286H14.9287C15.1081 16.9286 15.2072 16.7223 15.0974 16.583L11.4412 11.9223C11.4209 11.8967 11.395 11.8759 11.3656 11.8617C11.3361 11.8475 11.3038 11.8401 11.2711 11.8401C11.2384 11.8401 11.2061 11.8475 11.1766 11.8617C11.1472 11.8759 11.1213 11.8967 11.101 11.9223ZM5.92868 10.125C5.92868 10.4092 6.04156 10.6817 6.24249 10.8826C6.44342 11.0835 6.71595 11.1964 7.00011 11.1964C7.28427 11.1964 7.55679 11.0835 7.75772 10.8826C7.95865 10.6817 8.07153 10.4092 8.07153 10.125C8.07153 9.84084 7.95865 9.56832 7.75772 9.36739C7.55679 9.16645 7.28427 9.05357 7.00011 9.05357C6.71595 9.05357 6.44342 9.16645 6.24249 9.36739C6.04156 9.56832 5.92868 9.84084 5.92868 10.125ZM19.1769 6.01607L13.4126 0.251786C13.2519 0.0910715 13.0349 0 12.8072 0H1.42868C0.954569 0 0.571533 0.383036 0.571533 0.857143V23.1429C0.571533 23.617 0.954569 24 1.42868 24H18.5715C19.0456 24 19.4287 23.617 19.4287 23.1429V6.62411C19.4287 6.39643 19.3376 6.17679 19.1769 6.01607ZM17.4519 7.01786H12.4108V1.97679L17.4519 7.01786ZM17.5001 22.0714H2.5001V1.92857H10.5894V7.71429C10.5894 8.01265 10.7079 8.2988 10.9189 8.50978C11.1299 8.72076 11.416 8.83929 11.7144 8.83929H17.5001V22.0714Z" fill="#8C8C8C"/>
</svg>
