<svg width="38" height="38" viewBox="0 0 38 38" fill="none" xmlns="http://www.w3.org/2000/svg">
	<circle cx="19" cy="19" r="18" fill="#1890FF" stroke="#1890FF" stroke-width="2" />
	<path d="M12.8434 26C12.8934 26 12.9434 25.995 12.9934 25.9875L17.198 25.25C17.248 25.24 17.2955 25.2175 17.3304 25.18L27.9269 14.5825C27.9501 14.5594 27.9685 14.5319 27.981 14.5017C27.9935 14.4714 28 14.439 28 14.4062C28 14.3735 27.9935 14.3411 27.981 14.3108C27.9685 14.2806 27.9501 14.2531 27.9269 14.23L23.7723 10.0725C23.7248 10.025 23.6623 10 23.5948 10C23.5273 10 23.4648 10.025 23.4173 10.0725L12.8209 20.67C12.7834 20.7075 12.7609 20.7525 12.7509 20.8025L12.0135 25.0075C11.9892 25.1414 11.9978 25.2793 12.0388 25.4091C12.0797 25.5389 12.1517 25.6568 12.2485 25.7525C12.4134 25.9125 12.6209 26 12.8434 26Z" fill="white" />
</svg>
