<svg width="26" height="26" viewBox="0 0 26 26" fill="none" xmlns="http://www.w3.org/2000/svg">
<circle cx="13" cy="13" r="13" fill="black" fill-opacity="0.65"/>
<path d="M14.2891 13.2778L18.3125 9.29346L19.1328 8.47314C19.25 8.35596 19.25 8.16064 19.1328 8.00439L18.2734 7.14502C18.1172 7.02783 17.9219 7.02783 17.8047 7.14502L13 11.9888L8.15625 7.14502C8.03906 7.02783 7.84375 7.02783 7.6875 7.14502L6.82813 8.00439C6.71094 8.16064 6.71094 8.35596 6.82813 8.47314L11.6719 13.2778L6.82813 18.1216C6.71094 18.2388 6.71094 18.4341 6.82813 18.5903L7.6875 19.4497C7.84375 19.5669 8.03906 19.5669 8.15625 19.4497L13 14.606L16.9844 18.6294L17.8047 19.4497C17.9219 19.5669 18.1172 19.5669 18.2734 19.4497L19.1328 18.5903C19.25 18.4341 19.25 18.2388 19.1328 18.1216L14.2891 13.2778Z" fill="white"/>
</svg>
