<svg width="15" height="15" viewBox="0 0 15 15" fill="none" xmlns="http://www.w3.org/2000/svg">
<circle cx="7.5" cy="7.5" r="7.5" fill="#1890FF"/>
<path d="M8.17188 11.6484H7.08789V5.30859H8.17188V11.6484ZM7 3.62695C7 3.45117 7.05273 3.30273 7.1582 3.18164C7.26758 3.06055 7.42773 3 7.63867 3C7.84961 3 8.00977 3.06055 8.11914 3.18164C8.22852 3.30273 8.2832 3.45117 8.2832 3.62695C8.2832 3.80273 8.22852 3.94922 8.11914 4.06641C8.00977 4.18359 7.84961 4.24219 7.63867 4.24219C7.42773 4.24219 7.26758 4.18359 7.1582 4.06641C7.05273 3.94922 7 3.80273 7 3.62695Z" fill="white"/>
</svg>
