<svg width="2" height="13" viewBox="0 0 2 13" fill="none" xmlns="http://www.w3.org/2000/svg">
<path d="M0 1.98413C0 2.24935 0.105357 2.5037 0.292893 2.69124C0.480429 2.87877 0.734784 2.98413 1 2.98413C1.26522 2.98413 1.51957 2.87877 1.70711 2.69124C1.89464 2.5037 2 2.24935 2 1.98413C2 1.71891 1.89464 1.46456 1.70711 1.27702C1.51957 1.08949 1.26522 0.984131 1 0.984131C0.734784 0.984131 0.480429 1.08949 0.292893 1.27702C0.105357 1.46456 0 1.71891 0 1.98413ZM0 6.98413C0 7.24935 0.105357 7.5037 0.292893 7.69124C0.480429 7.87877 0.734784 7.98413 1 7.98413C1.26522 7.98413 1.51957 7.87877 1.70711 7.69124C1.89464 7.5037 2 7.24935 2 6.98413C2 6.71891 1.89464 6.46456 1.70711 6.27702C1.51957 6.08949 1.26522 5.98413 1 5.98413C0.734784 5.98413 0.480429 6.08949 0.292893 6.27702C0.105357 6.46456 0 6.71891 0 6.98413ZM0 11.9841C0 12.2493 0.105357 12.5037 0.292893 12.6912C0.480429 12.8788 0.734784 12.9841 1 12.9841C1.26522 12.9841 1.51957 12.8788 1.70711 12.6912C1.89464 12.5037 2 12.2493 2 11.9841C2 11.7189 1.89464 11.4646 1.70711 11.277C1.51957 11.0895 1.26522 10.9841 1 10.9841C0.734784 10.9841 0.480429 11.0895 0.292893 11.277C0.105357 11.4646 0 11.7189 0 11.9841Z" fill="black" fill-opacity="0.65"/>
</svg>
