<svg width="18" height="18" viewBox="0 0 18 18" fill="none" xmlns="http://www.w3.org/2000/svg">
	<path d="M16.7338 14.6134C16.3127 13.616 15.7016 12.7101 14.9347 11.946C14.17 11.1797 13.2642 10.5688 12.2672 10.1469C12.2583 10.1424 12.2494 10.1402 12.2405 10.1357C13.6311 9.13128 14.5351 7.49512 14.5351 5.64914C14.5351 2.5911 12.0574 0.11342 8.99939 0.11342C5.94135 0.11342 3.46367 2.5911 3.46367 5.64914C3.46367 7.49512 4.36769 9.13128 5.75832 10.138C5.74939 10.1424 5.74046 10.1447 5.73153 10.1491C4.73153 10.571 3.83421 11.1759 3.06412 11.9482C2.29785 12.7129 1.6869 13.6187 1.26501 14.6157C0.850554 15.5917 0.627027 16.6381 0.606532 17.6982C0.605936 17.7221 0.610115 17.7458 0.618821 17.768C0.627528 17.7901 0.640587 17.8104 0.657229 17.8274C0.673871 17.8445 0.693758 17.858 0.71572 17.8673C0.737681 17.8765 0.761272 17.8813 0.785103 17.8813H2.12439C2.2226 17.8813 2.30073 17.8032 2.30296 17.7072C2.3476 15.984 3.03957 14.3701 4.26278 13.1469C5.52841 11.8813 7.20921 11.1849 8.99939 11.1849C10.7896 11.1849 12.4704 11.8813 13.736 13.1469C14.9592 14.3701 15.6512 15.984 15.6958 17.7072C15.698 17.8054 15.7762 17.8813 15.8744 17.8813H17.2137C17.2375 17.8813 17.2611 17.8765 17.2831 17.8673C17.305 17.858 17.3249 17.8445 17.3415 17.8274C17.3582 17.8104 17.3713 17.7901 17.38 17.768C17.3887 17.7458 17.3928 17.7221 17.3922 17.6982C17.3699 16.6313 17.1489 15.5933 16.7338 14.6134ZM8.99939 9.48842C7.97484 9.48842 7.01055 9.08887 6.2851 8.36342C5.55966 7.63798 5.1601 6.67369 5.1601 5.64914C5.1601 4.62458 5.55966 3.6603 6.2851 2.93485C7.01055 2.2094 7.97484 1.80985 8.99939 1.80985C10.0239 1.80985 10.9882 2.2094 11.7137 2.93485C12.4391 3.6603 12.8387 4.62458 12.8387 5.64914C12.8387 6.67369 12.4391 7.63798 11.7137 8.36342C10.9882 9.08887 10.0239 9.48842 8.99939 9.48842Z" fill="#1890FF" />
</svg>
